<?xml version="1.0" standalone="no"?>
<!DOCTYPE svg PUBLIC "-//W3C//DTD SVG 20010904//EN"
 "http://www.w3.org/TR/2001/REC-SVG-20010904/DTD/svg10.dtd">
<svg version="1.0" xmlns="http://www.w3.org/2000/svg"
 width="512.000000pt" height="512.000000pt" viewBox="0 0 512.000000 512.000000"
 preserveAspectRatio="xMidYMid meet">

<g transform="translate(0.000000,512.000000) scale(0.100000,-0.100000)"
fill="#000000" stroke="none">
<path d="M2287 5000 c-485 -55 -919 -230 -1310 -527 -123 -93 -348 -315 -439
-433 -489 -632 -651 -1398 -458 -2163 178 -703 682 -1312 1355 -1637 174 -84
304 -130 366 -130 45 0 55 4 85 34 l34 34 0 242 c0 225 -1 241 -17 236 -54
-16 -209 -28 -293 -22 -186 12 -326 72 -433 186 -52 54 -77 95 -135 211 -83
171 -148 253 -251 323 -121 82 -141 129 -66 155 31 10 54 11 103 3 136 -22
266 -114 358 -254 91 -138 173 -207 295 -248 108 -37 291 -26 410 24 34 14 37
20 58 100 23 85 71 178 117 227 l25 26 -63 7 c-172 19 -402 83 -530 147 -155
78 -321 225 -396 352 -124 207 -179 457 -169 765 4 132 9 171 31 247 38 125
86 222 161 319 l63 83 -20 59 c-15 42 -22 95 -26 185 -5 139 5 216 43 339 23
71 28 78 56 84 108 21 373 -73 600 -214 l78 -48 53 14 c178 47 493 79 683 69
139 -7 357 -37 466 -63 l76 -19 79 49 c226 141 485 233 593 212 28 -6 33 -13
56 -84 13 -43 29 -108 36 -146 16 -95 7 -302 -18 -379 l-19 -60 52 -65 c112
-137 184 -318 203 -508 18 -176 -10 -441 -65 -609 -131 -403 -438 -632 -955
-715 l-137 -22 34 -38 c41 -46 86 -134 110 -214 15 -51 18 -122 23 -504 6
-482 6 -476 63 -506 43 -23 102 -15 223 30 811 302 1426 1016 1594 1851 37
186 45 277 45 500 0 309 -34 515 -131 800 -264 774 -923 1391 -1722 1611 -236
65 -386 86 -656 89 -132 2 -275 0 -318 -5z"/>
</g>
</svg>
