<?xml version="1.0" standalone="no"?>
<!DOCTYPE svg PUBLIC "-//W3C//DTD SVG 20010904//EN"
 "http://www.w3.org/TR/2001/REC-SVG-20010904/DTD/svg10.dtd">
<svg version="1.0" xmlns="http://www.w3.org/2000/svg"
 width="512.000000pt" height="512.000000pt" viewBox="0 0 512.000000 512.000000"
 preserveAspectRatio="xMidYMid meet">

<g transform="translate(0.000000,512.000000) scale(0.100000,-0.100000)"
fill="#000000" stroke="none">
<path d="M2325 5109 c-486 -50 -924 -220 -1315 -512 -122 -92 -395 -365 -487
-487 -264 -355 -428 -742 -495 -1175 -29 -191 -31 -530 -4 -720 40 -279 120
-539 242 -784 129 -259 254 -438 449 -639 221 -229 439 -390 710 -523 260
-127 483 -198 760 -241 201 -31 550 -31 750 0 277 43 513 118 754 238 280 139
449 261 676 489 228 227 350 396 489 676 120 240 204 512 243 784 24 171 24
516 -1 690 -39 273 -117 531 -236 773 -135 276 -266 458 -495 687 -233 233
-400 353 -690 495 -245 120 -469 190 -738 231 -153 23 -473 33 -612 18z m-689
-1100 c56 -17 77 -31 124 -78 70 -70 95 -133 94 -238 -2 -195 -175 -331 -394
-309 -119 12 -212 71 -265 168 -24 44 -30 68 -33 139 -4 78 -2 92 23 148 71
158 260 229 451 170z m1919 -864 c238 -65 401 -240 476 -515 23 -84 23 -91 27
-732 l3 -648 -310 0 -310 0 -3 573 c-3 563 -4 573 -26 639 -31 91 -75 146
-147 183 -51 26 -69 30 -139 29 -65 0 -92 -5 -136 -26 -65 -30 -127 -90 -166
-161 l-29 -52 -3 -592 -3 -593 -314 0 -315 0 0 940 0 940 313 -2 312 -3 5
-123 5 -123 39 51 c38 50 115 120 169 154 41 26 150 65 210 76 73 13 270 4
342 -15z m-1737 -957 l2 -938 -315 0 -315 0 0 933 c0 514 3 937 7 940 4 4 144
6 312 5 l306 -3 3 -937z"/>
</g>
</svg>
