<?xml version="1.0" standalone="no"?>
<!DOCTYPE svg PUBLIC "-//W3C//DTD SVG 20010904//EN"
 "http://www.w3.org/TR/2001/REC-SVG-20010904/DTD/svg10.dtd">
<svg version="1.0" xmlns="http://www.w3.org/2000/svg"
 width="512.000000pt" height="512.000000pt" viewBox="0 0 512.000000 512.000000"
 preserveAspectRatio="xMidYMid meet">

<g transform="translate(0.000000,512.000000) scale(0.100000,-0.100000)"
fill="#000000" stroke="none">
<path d="M2347 4475 c-724 -99 -1349 -610 -1586 -1298 -84 -243 -117 -466
-108 -717 9 -243 49 -436 133 -650 367 -929 1366 -1434 2333 -1180 631 166
1149 653 1357 1274 212 637 87 1336 -333 1856 -79 98 -258 271 -353 341 -276
204 -588 331 -916 374 -139 18 -392 18 -527 0z m522 -121 c416 -61 766 -239
1063 -540 381 -387 572 -927 518 -1465 -81 -799 -672 -1459 -1455 -1625 -484
-102 -993 -4 -1406 272 -657 439 -962 1255 -754 2019 176 646 714 1163 1363
1310 204 46 475 58 671 29z"/>
<path d="M2393 3164 c-177 -190 -229 -252 -231 -275 -4 -40 13 -59 53 -59 28
0 49 18 196 177 l164 176 5 -750 c4 -615 7 -753 19 -766 18 -22 64 -21 84 1
16 17 17 86 17 782 l0 763 186 -192 c165 -170 189 -191 218 -191 40 0 56 16
56 55 -1 26 -36 66 -243 278 -196 200 -247 247 -269 247 -21 0 -67 -44 -255
-246z"/>
</g>
</svg>
